<mxfile host="app.diagrams.net" modified="2023-09-22T17:44:27.675Z" agent="Mozilla/5.0 (Windows NT 10.0; Win64; x64) AppleWebKit/537.36 (KHTML, like Gecko) Chrome/117.0.0.0 Safari/537.36" etag="mkQf_Kuwl6kmBXbIPJ93" version="21.7.2" type="device" pages="3">
  <diagram name="Domains" id="0HPipbWxrnICGh0OVKMU">
    <mxGraphModel dx="1434" dy="782" grid="1" gridSize="10" guides="1" tooltips="1" connect="1" arrows="1" fold="1" page="1" pageScale="1" pageWidth="1169" pageHeight="827" math="0" shadow="0">
      <root>
        <mxCell id="0" />
        <mxCell id="1" parent="0" />
        <mxCell id="D_UNm7syt_3pKOxitxKk-1" value="&amp;nbsp; &amp;nbsp; &amp;nbsp;&lt;b&gt;&lt;font style=&quot;font-size: 14px;&quot;&gt; User Access Layer&lt;/font&gt;&lt;/b&gt;" style="rounded=1;whiteSpace=wrap;html=1;align=left;fillColor=#dae8fc;strokeColor=#6c8ebf;" parent="1" vertex="1">
          <mxGeometry x="40" y="40" width="1080" height="80" as="geometry" />
        </mxCell>
        <mxCell id="D_UNm7syt_3pKOxitxKk-3" value="iOS mobile app" style="image;sketch=0;aspect=fixed;html=1;points=[];align=center;fontSize=12;image=img/lib/mscae/App_Service_Mobile_App.svg;labelBackgroundColor=none;" parent="1" vertex="1">
          <mxGeometry x="410" y="50" width="27.2" height="40" as="geometry" />
        </mxCell>
        <mxCell id="D_UNm7syt_3pKOxitxKk-4" value="Android mobile app" style="image;sketch=0;aspect=fixed;html=1;points=[];align=center;fontSize=12;image=img/lib/mscae/App_Service_Mobile_App.svg;labelBackgroundColor=none;" parent="1" vertex="1">
          <mxGeometry x="630" y="50" width="27.2" height="40" as="geometry" />
        </mxCell>
        <mxCell id="D_UNm7syt_3pKOxitxKk-5" value="Web application" style="image;sketch=0;aspect=fixed;html=1;points=[];align=center;fontSize=12;image=img/lib/mscae/CustomDomain.svg;labelBackgroundColor=none;" parent="1" vertex="1">
          <mxGeometry x="830" y="50" width="50" height="42" as="geometry" />
        </mxCell>
        <mxCell id="D_UNm7syt_3pKOxitxKk-11" value="&lt;font style=&quot;font-size: 14px;&quot;&gt;&lt;span style=&quot;font-size: 14px;&quot;&gt;&lt;b&gt;Travel planning&lt;/b&gt;&lt;br&gt;Planning Service&lt;br&gt;&lt;/span&gt;&lt;/font&gt;" style="rounded=1;whiteSpace=wrap;html=1;verticalAlign=top;fontSize=14;fillColor=#dae8fc;strokeColor=#6c8ebf;" parent="1" vertex="1">
          <mxGeometry x="40" y="210" width="240" height="390" as="geometry" />
        </mxCell>
        <mxCell id="D_UNm7syt_3pKOxitxKk-12" value="&lt;font style=&quot;font-size: 14px;&quot;&gt;&lt;span style=&quot;font-size: 14px;&quot;&gt;&lt;b&gt;Enjoy your trip!&lt;/b&gt;&lt;br&gt;Travel Service&lt;br&gt;&lt;/span&gt;&lt;/font&gt;" style="rounded=1;whiteSpace=wrap;html=1;verticalAlign=top;fontSize=14;fillColor=#dae8fc;strokeColor=#6c8ebf;" parent="1" vertex="1">
          <mxGeometry x="317" y="210" width="243" height="390" as="geometry" />
        </mxCell>
        <mxCell id="D_UNm7syt_3pKOxitxKk-13" value="&lt;font style=&quot;font-size: 14px;&quot;&gt;&lt;span style=&quot;font-size: 14px;&quot;&gt;&lt;b&gt;Help me!&lt;/b&gt;&lt;br&gt;Support Service&lt;br&gt;&lt;/span&gt;&lt;/font&gt;" style="rounded=1;whiteSpace=wrap;html=1;verticalAlign=top;fontSize=14;fillColor=#dae8fc;strokeColor=#6c8ebf;" parent="1" vertex="1">
          <mxGeometry x="600" y="210" width="243" height="390" as="geometry" />
        </mxCell>
        <mxCell id="D_UNm7syt_3pKOxitxKk-14" value="&lt;font style=&quot;font-size: 14px;&quot;&gt;&lt;span style=&quot;font-size: 14px;&quot;&gt;&lt;b&gt;Time machine&lt;/b&gt;&lt;br&gt;Analytics Service&lt;br&gt;&lt;/span&gt;&lt;/font&gt;" style="rounded=1;whiteSpace=wrap;html=1;verticalAlign=top;fontSize=14;fillColor=#dae8fc;strokeColor=#6c8ebf;" parent="1" vertex="1">
          <mxGeometry x="880" y="210" width="240" height="390" as="geometry" />
        </mxCell>
        <mxCell id="D_UNm7syt_3pKOxitxKk-19" value="&amp;nbsp; &amp;nbsp; &amp;nbsp;&lt;b&gt;&lt;font style=&quot;font-size: 14px;&quot;&gt; API Gateway&lt;/font&gt;&lt;/b&gt;" style="rounded=1;whiteSpace=wrap;html=1;align=left;fillColor=#f5f5f5;strokeColor=#666666;fontColor=#333333;" parent="1" vertex="1">
          <mxGeometry x="40" y="140" width="1080" height="40" as="geometry" />
        </mxCell>
        <mxCell id="D_UNm7syt_3pKOxitxKk-21" value="&lt;font style=&quot;font-size: 14px;&quot;&gt;&lt;span style=&quot;font-size: 14px;&quot;&gt;&lt;b&gt;Data Capture&lt;/b&gt;&lt;br&gt;&lt;/span&gt;&lt;/font&gt;" style="rounded=1;whiteSpace=wrap;html=1;verticalAlign=top;fontSize=14;fillColor=#dae8fc;strokeColor=#6c8ebf;" parent="1" vertex="1">
          <mxGeometry x="40" y="640" width="530" height="90" as="geometry" />
        </mxCell>
        <mxCell id="D_UNm7syt_3pKOxitxKk-22" value="Planning data service" style="shape=cylinder3;whiteSpace=wrap;html=1;boundedLbl=1;backgroundOutline=1;size=15;" parent="1" vertex="1">
          <mxGeometry x="135" y="510" width="75" height="70" as="geometry" />
        </mxCell>
        <mxCell id="D_UNm7syt_3pKOxitxKk-23" value="Mail Extractor" style="rounded=1;whiteSpace=wrap;html=1;" parent="1" vertex="1">
          <mxGeometry x="100" y="677" width="100" height="40" as="geometry" />
        </mxCell>
        <mxCell id="D_UNm7syt_3pKOxitxKk-24" value="Agency updates" style="rounded=1;whiteSpace=wrap;html=1;" parent="1" vertex="1">
          <mxGeometry x="250" y="677" width="100" height="40" as="geometry" />
        </mxCell>
        <mxCell id="D_UNm7syt_3pKOxitxKk-25" value="Updates Travel Networks" style="rounded=1;whiteSpace=wrap;html=1;" parent="1" vertex="1">
          <mxGeometry x="400" y="677" width="100" height="40" as="geometry" />
        </mxCell>
        <mxCell id="D_UNm7syt_3pKOxitxKk-26" value="User Profile creator" style="rounded=1;whiteSpace=wrap;html=1;" parent="1" vertex="1">
          <mxGeometry x="53" y="270" width="100" height="40" as="geometry" />
        </mxCell>
        <mxCell id="D_UNm7syt_3pKOxitxKk-27" value="Trip creator" style="rounded=1;whiteSpace=wrap;html=1;" parent="1" vertex="1">
          <mxGeometry x="173" y="270" width="100" height="40" as="geometry" />
        </mxCell>
        <mxCell id="D_UNm7syt_3pKOxitxKk-28" value="Reservation creator" style="rounded=1;whiteSpace=wrap;html=1;" parent="1" vertex="1">
          <mxGeometry x="53" y="320" width="100" height="40" as="geometry" />
        </mxCell>
        <mxCell id="D_UNm7syt_3pKOxitxKk-29" value="Trip reservation linker" style="rounded=1;whiteSpace=wrap;html=1;" parent="1" vertex="1">
          <mxGeometry x="173" y="320" width="100" height="40" as="geometry" />
        </mxCell>
        <mxCell id="D_UNm7syt_3pKOxitxKk-30" value="Social media publisher" style="rounded=1;whiteSpace=wrap;html=1;" parent="1" vertex="1">
          <mxGeometry x="53" y="370" width="100" height="40" as="geometry" />
        </mxCell>
        <mxCell id="D_UNm7syt_3pKOxitxKk-31" value="Trip share" style="rounded=1;whiteSpace=wrap;html=1;" parent="1" vertex="1">
          <mxGeometry x="173" y="370" width="100" height="40" as="geometry" />
        </mxCell>
        <mxCell id="D_UNm7syt_3pKOxitxKk-32" value="Reservation updater" style="rounded=1;whiteSpace=wrap;html=1;" parent="1" vertex="1">
          <mxGeometry x="53" y="420" width="100" height="40" as="geometry" />
        </mxCell>
        <mxCell id="D_UNm7syt_3pKOxitxKk-34" value="Trip activator" style="rounded=1;whiteSpace=wrap;html=1;" parent="1" vertex="1">
          <mxGeometry x="173" y="420" width="100" height="40" as="geometry" />
        </mxCell>
        <mxCell id="D_UNm7syt_3pKOxitxKk-45" value="Support data service" style="shape=cylinder3;whiteSpace=wrap;html=1;boundedLbl=1;backgroundOutline=1;size=15;" parent="1" vertex="1">
          <mxGeometry x="688" y="500" width="72" height="70" as="geometry" />
        </mxCell>
        <mxCell id="D_UNm7syt_3pKOxitxKk-46" value="Agent registrator" style="rounded=1;whiteSpace=wrap;html=1;" parent="1" vertex="1">
          <mxGeometry x="610" y="270" width="100" height="40" as="geometry" />
        </mxCell>
        <mxCell id="D_UNm7syt_3pKOxitxKk-47" value="Help redirector" style="rounded=1;whiteSpace=wrap;html=1;" parent="1" vertex="1">
          <mxGeometry x="720" y="270" width="100" height="40" as="geometry" />
        </mxCell>
        <mxCell id="D_UNm7syt_3pKOxitxKk-48" value="Support data archiver" style="rounded=1;whiteSpace=wrap;html=1;" parent="1" vertex="1">
          <mxGeometry x="610" y="320" width="100" height="40" as="geometry" />
        </mxCell>
        <mxCell id="D_UNm7syt_3pKOxitxKk-49" value="OLAP data system" style="shape=cylinder3;whiteSpace=wrap;html=1;boundedLbl=1;backgroundOutline=1;size=15;" parent="1" vertex="1">
          <mxGeometry x="959" y="500" width="72" height="70" as="geometry" />
        </mxCell>
        <mxCell id="D_UNm7syt_3pKOxitxKk-50" value="Report generator" style="rounded=1;whiteSpace=wrap;html=1;" parent="1" vertex="1">
          <mxGeometry x="890" y="270" width="100" height="40" as="geometry" />
        </mxCell>
        <mxCell id="D_UNm7syt_3pKOxitxKk-51" value="Time machine API" style="rounded=1;whiteSpace=wrap;html=1;" parent="1" vertex="1">
          <mxGeometry x="1000" y="270" width="100" height="40" as="geometry" />
        </mxCell>
        <mxCell id="D_UNm7syt_3pKOxitxKk-55" value="" style="group" parent="1" vertex="1" connectable="0">
          <mxGeometry x="329" y="428" width="103" height="60" as="geometry" />
        </mxCell>
        <mxCell id="D_UNm7syt_3pKOxitxKk-40" value="Social media publisher" style="rounded=1;whiteSpace=wrap;html=1;fontStyle=0" parent="D_UNm7syt_3pKOxitxKk-55" vertex="1">
          <mxGeometry x="3" width="100" height="40" as="geometry" />
        </mxCell>
        <mxCell id="D_UNm7syt_3pKOxitxKk-54" value="" style="shape=cylinder3;whiteSpace=wrap;html=1;boundedLbl=1;backgroundOutline=1;size=6.352941176470495;fontStyle=0" parent="D_UNm7syt_3pKOxitxKk-55" vertex="1">
          <mxGeometry y="30" width="20" height="30" as="geometry" />
        </mxCell>
        <mxCell id="D_UNm7syt_3pKOxitxKk-56" value="" style="group" parent="1" vertex="1" connectable="0">
          <mxGeometry x="329" y="510" width="103" height="57" as="geometry" />
        </mxCell>
        <mxCell id="D_UNm7syt_3pKOxitxKk-43" value="Trip archiver" style="rounded=1;whiteSpace=wrap;html=1;" parent="D_UNm7syt_3pKOxitxKk-56" vertex="1">
          <mxGeometry x="3" width="100" height="40" as="geometry" />
        </mxCell>
        <mxCell id="D_UNm7syt_3pKOxitxKk-52" value="" style="shape=cylinder3;whiteSpace=wrap;html=1;boundedLbl=1;backgroundOutline=1;size=6.352941176470495;" parent="D_UNm7syt_3pKOxitxKk-56" vertex="1">
          <mxGeometry y="27" width="20" height="30" as="geometry" />
        </mxCell>
        <mxCell id="D_UNm7syt_3pKOxitxKk-58" value="" style="group" parent="1" vertex="1" connectable="0">
          <mxGeometry x="445" y="427" width="107" height="60" as="geometry" />
        </mxCell>
        <mxCell id="D_UNm7syt_3pKOxitxKk-42" value="Reservation update checker" style="rounded=1;whiteSpace=wrap;html=1;" parent="D_UNm7syt_3pKOxitxKk-58" vertex="1">
          <mxGeometry x="7" width="100" height="40" as="geometry" />
        </mxCell>
        <mxCell id="D_UNm7syt_3pKOxitxKk-57" value="" style="shape=cylinder3;whiteSpace=wrap;html=1;boundedLbl=1;backgroundOutline=1;size=6.352941176470495;fontStyle=0" parent="D_UNm7syt_3pKOxitxKk-58" vertex="1">
          <mxGeometry y="30" width="20" height="30" as="geometry" />
        </mxCell>
        <mxCell id="D_UNm7syt_3pKOxitxKk-62" value="" style="group" parent="1" vertex="1" connectable="0">
          <mxGeometry x="329" y="348" width="103" height="60" as="geometry" />
        </mxCell>
        <mxCell id="D_UNm7syt_3pKOxitxKk-38" value="Trip updater" style="rounded=1;whiteSpace=wrap;html=1;" parent="D_UNm7syt_3pKOxitxKk-62" vertex="1">
          <mxGeometry x="3" width="100" height="40" as="geometry" />
        </mxCell>
        <mxCell id="D_UNm7syt_3pKOxitxKk-60" value="" style="shape=cylinder3;whiteSpace=wrap;html=1;boundedLbl=1;backgroundOutline=1;size=6.352941176470495;fontStyle=0" parent="D_UNm7syt_3pKOxitxKk-62" vertex="1">
          <mxGeometry y="30" width="20" height="30" as="geometry" />
        </mxCell>
        <mxCell id="D_UNm7syt_3pKOxitxKk-63" value="" style="group" parent="1" vertex="1" connectable="0">
          <mxGeometry x="448" y="347" width="104" height="60" as="geometry" />
        </mxCell>
        <mxCell id="D_UNm7syt_3pKOxitxKk-39" value="Trip reservation linker" style="rounded=1;whiteSpace=wrap;html=1;" parent="D_UNm7syt_3pKOxitxKk-63" vertex="1">
          <mxGeometry x="4" width="100" height="40" as="geometry" />
        </mxCell>
        <mxCell id="D_UNm7syt_3pKOxitxKk-61" value="" style="shape=cylinder3;whiteSpace=wrap;html=1;boundedLbl=1;backgroundOutline=1;size=6.352941176470495;fontStyle=0" parent="D_UNm7syt_3pKOxitxKk-63" vertex="1">
          <mxGeometry y="30" width="20" height="30" as="geometry" />
        </mxCell>
        <mxCell id="D_UNm7syt_3pKOxitxKk-72" value="" style="group" parent="1" vertex="1" connectable="0">
          <mxGeometry x="329" y="270" width="103" height="56" as="geometry" />
        </mxCell>
        <mxCell id="D_UNm7syt_3pKOxitxKk-36" value="Trip &amp;amp; reservation provider" style="rounded=1;whiteSpace=wrap;html=1;" parent="D_UNm7syt_3pKOxitxKk-72" vertex="1">
          <mxGeometry x="3" width="100" height="40" as="geometry" />
        </mxCell>
        <mxCell id="D_UNm7syt_3pKOxitxKk-71" value="" style="shape=cylinder3;whiteSpace=wrap;html=1;boundedLbl=1;backgroundOutline=1;size=6.352941176470495;fontStyle=0" parent="D_UNm7syt_3pKOxitxKk-72" vertex="1">
          <mxGeometry y="26" width="20" height="30" as="geometry" />
        </mxCell>
        <mxCell id="D_UNm7syt_3pKOxitxKk-73" value="" style="group" parent="1" vertex="1" connectable="0">
          <mxGeometry x="448" y="270" width="104" height="56" as="geometry" />
        </mxCell>
        <mxCell id="D_UNm7syt_3pKOxitxKk-37" value="Reservation updater" style="rounded=1;whiteSpace=wrap;html=1;" parent="D_UNm7syt_3pKOxitxKk-73" vertex="1">
          <mxGeometry x="4" width="100" height="40" as="geometry" />
        </mxCell>
        <mxCell id="D_UNm7syt_3pKOxitxKk-70" value="" style="shape=cylinder3;whiteSpace=wrap;html=1;boundedLbl=1;backgroundOutline=1;size=6.352941176470495;fontStyle=0" parent="D_UNm7syt_3pKOxitxKk-73" vertex="1">
          <mxGeometry y="26" width="20" height="30" as="geometry" />
        </mxCell>
      </root>
    </mxGraphModel>
  </diagram>
  <diagram id="0t5WmjTO1x-1jblgqOA3" name="DataFlowModules">
    <mxGraphModel dx="1188" dy="800" grid="1" gridSize="10" guides="1" tooltips="1" connect="1" arrows="1" fold="1" page="1" pageScale="1" pageWidth="1169" pageHeight="827" math="0" shadow="0">
      <root>
        <mxCell id="0" />
        <mxCell id="1" parent="0" />
        <mxCell id="hSiwf4D9BwKY_Jgl33-o-1" value="Outbound" style="rounded=1;whiteSpace=wrap;html=1;verticalAlign=top;fontStyle=1;fillColor=#d5e8d4;strokeColor=#82b366;" vertex="1" parent="1">
          <mxGeometry x="190" y="140" width="280" height="210" as="geometry" />
        </mxCell>
        <mxCell id="hSiwf4D9BwKY_Jgl33-o-2" value="Front end" style="rounded=1;whiteSpace=wrap;html=1;verticalAlign=top;fontStyle=1;fillColor=#d5e8d4;strokeColor=#82b366;" vertex="1" parent="1">
          <mxGeometry x="510" y="20" width="280" height="210" as="geometry" />
        </mxCell>
        <mxCell id="hSiwf4D9BwKY_Jgl33-o-4" value="Core" style="rounded=1;whiteSpace=wrap;html=1;verticalAlign=top;fontStyle=1;fillColor=#d5e8d4;strokeColor=#82b366;" vertex="1" parent="1">
          <mxGeometry x="510" y="260" width="280" height="210" as="geometry" />
        </mxCell>
        <mxCell id="hSiwf4D9BwKY_Jgl33-o-5" value="Inbound" style="rounded=1;whiteSpace=wrap;html=1;verticalAlign=top;fontStyle=1;fillColor=#d5e8d4;strokeColor=#82b366;" vertex="1" parent="1">
          <mxGeometry x="510" y="490" width="280" height="230" as="geometry" />
        </mxCell>
        <mxCell id="hSiwf4D9BwKY_Jgl33-o-6" value="Agency" style="rounded=0;whiteSpace=wrap;html=1;" vertex="1" parent="1">
          <mxGeometry x="40" y="175" width="80" height="30" as="geometry" />
        </mxCell>
        <mxCell id="hSiwf4D9BwKY_Jgl33-o-7" value="Social Media" style="rounded=0;whiteSpace=wrap;html=1;" vertex="1" parent="1">
          <mxGeometry x="40" y="230" width="80" height="30" as="geometry" />
        </mxCell>
        <mxCell id="OzTdUbhFWefRgkYC2qgM-2" style="edgeStyle=orthogonalEdgeStyle;rounded=0;orthogonalLoop=1;jettySize=auto;html=1;exitX=0;exitY=0.5;exitDx=0;exitDy=0;entryX=1;entryY=0.5;entryDx=0;entryDy=0;" edge="1" parent="1" source="KKr6MW5GiYsRlFWR4de0-1" target="hSiwf4D9BwKY_Jgl33-o-6">
          <mxGeometry relative="1" as="geometry" />
        </mxCell>
        <mxCell id="KKr6MW5GiYsRlFWR4de0-1" value="Help redirector" style="rounded=1;whiteSpace=wrap;html=1;" vertex="1" parent="1">
          <mxGeometry x="240" y="170" width="100" height="40" as="geometry" />
        </mxCell>
        <mxCell id="OzTdUbhFWefRgkYC2qgM-3" style="edgeStyle=orthogonalEdgeStyle;rounded=0;orthogonalLoop=1;jettySize=auto;html=1;exitX=0;exitY=0.5;exitDx=0;exitDy=0;entryX=1;entryY=0.5;entryDx=0;entryDy=0;" edge="1" parent="1" source="KKr6MW5GiYsRlFWR4de0-2" target="hSiwf4D9BwKY_Jgl33-o-7">
          <mxGeometry relative="1" as="geometry" />
        </mxCell>
        <mxCell id="KKr6MW5GiYsRlFWR4de0-2" value="Social Media Publisher" style="rounded=1;whiteSpace=wrap;html=1;" vertex="1" parent="1">
          <mxGeometry x="240" y="225" width="100" height="40" as="geometry" />
        </mxCell>
        <mxCell id="KKr6MW5GiYsRlFWR4de0-3" value="Trip Share" style="rounded=1;whiteSpace=wrap;html=1;" vertex="1" parent="1">
          <mxGeometry x="240" y="280" width="100" height="40" as="geometry" />
        </mxCell>
        <mxCell id="OzTdUbhFWefRgkYC2qgM-7" style="edgeStyle=orthogonalEdgeStyle;rounded=0;orthogonalLoop=1;jettySize=auto;html=1;exitX=0.75;exitY=1;exitDx=0;exitDy=0;entryX=0.25;entryY=0;entryDx=0;entryDy=0;" edge="1" parent="1" source="OzTdUbhFWefRgkYC2qgM-4" target="OzTdUbhFWefRgkYC2qgM-6">
          <mxGeometry relative="1" as="geometry" />
        </mxCell>
        <mxCell id="OzTdUbhFWefRgkYC2qgM-4" value="Web UI" style="rounded=1;whiteSpace=wrap;html=1;" vertex="1" parent="1">
          <mxGeometry x="550" y="70" width="100" height="40" as="geometry" />
        </mxCell>
        <mxCell id="OzTdUbhFWefRgkYC2qgM-8" style="edgeStyle=orthogonalEdgeStyle;rounded=0;orthogonalLoop=1;jettySize=auto;html=1;exitX=0.25;exitY=1;exitDx=0;exitDy=0;entryX=0.75;entryY=0;entryDx=0;entryDy=0;" edge="1" parent="1" source="OzTdUbhFWefRgkYC2qgM-5" target="OzTdUbhFWefRgkYC2qgM-6">
          <mxGeometry relative="1" as="geometry" />
        </mxCell>
        <mxCell id="OzTdUbhFWefRgkYC2qgM-5" value="Mobile App" style="rounded=1;whiteSpace=wrap;html=1;" vertex="1" parent="1">
          <mxGeometry x="660" y="70" width="100" height="40" as="geometry" />
        </mxCell>
        <mxCell id="OzTdUbhFWefRgkYC2qgM-11" value="traveler updates" style="edgeStyle=orthogonalEdgeStyle;rounded=0;orthogonalLoop=1;jettySize=auto;html=1;exitX=1;exitY=0.5;exitDx=0;exitDy=0;entryX=0;entryY=0.5;entryDx=0;entryDy=0;" edge="1" parent="1" source="OzTdUbhFWefRgkYC2qgM-6" target="OzTdUbhFWefRgkYC2qgM-9">
          <mxGeometry relative="1" as="geometry">
            <Array as="points">
              <mxPoint x="850" y="170" />
              <mxPoint x="850" y="335" />
            </Array>
          </mxGeometry>
        </mxCell>
        <mxCell id="OzTdUbhFWefRgkYC2qgM-25" value="get content" style="edgeStyle=orthogonalEdgeStyle;rounded=0;orthogonalLoop=1;jettySize=auto;html=1;exitX=0.25;exitY=1;exitDx=0;exitDy=0;entryX=0.5;entryY=0;entryDx=0;entryDy=0;" edge="1" parent="1" source="OzTdUbhFWefRgkYC2qgM-6" target="OzTdUbhFWefRgkYC2qgM-12">
          <mxGeometry relative="1" as="geometry" />
        </mxCell>
        <mxCell id="OzTdUbhFWefRgkYC2qgM-26" style="edgeStyle=orthogonalEdgeStyle;rounded=0;orthogonalLoop=1;jettySize=auto;html=1;exitX=0;exitY=0.5;exitDx=0;exitDy=0;entryX=1;entryY=0.5;entryDx=0;entryDy=0;" edge="1" parent="1" source="OzTdUbhFWefRgkYC2qgM-6" target="KKr6MW5GiYsRlFWR4de0-1">
          <mxGeometry relative="1" as="geometry">
            <Array as="points">
              <mxPoint x="490" y="170" />
              <mxPoint x="490" y="190" />
            </Array>
          </mxGeometry>
        </mxCell>
        <mxCell id="OzTdUbhFWefRgkYC2qgM-28" style="edgeStyle=orthogonalEdgeStyle;rounded=0;orthogonalLoop=1;jettySize=auto;html=1;exitX=0;exitY=0.5;exitDx=0;exitDy=0;entryX=1;entryY=0.5;entryDx=0;entryDy=0;" edge="1" parent="1" source="OzTdUbhFWefRgkYC2qgM-6" target="KKr6MW5GiYsRlFWR4de0-2">
          <mxGeometry relative="1" as="geometry">
            <Array as="points">
              <mxPoint x="490" y="170" />
              <mxPoint x="490" y="245" />
            </Array>
          </mxGeometry>
        </mxCell>
        <mxCell id="OzTdUbhFWefRgkYC2qgM-29" style="edgeStyle=orthogonalEdgeStyle;rounded=0;orthogonalLoop=1;jettySize=auto;html=1;exitX=0;exitY=0.5;exitDx=0;exitDy=0;entryX=1;entryY=0.5;entryDx=0;entryDy=0;" edge="1" parent="1" source="OzTdUbhFWefRgkYC2qgM-6" target="KKr6MW5GiYsRlFWR4de0-3">
          <mxGeometry relative="1" as="geometry">
            <Array as="points">
              <mxPoint x="490" y="170" />
              <mxPoint x="490" y="300" />
            </Array>
          </mxGeometry>
        </mxCell>
        <mxCell id="OzTdUbhFWefRgkYC2qgM-33" style="edgeStyle=orthogonalEdgeStyle;rounded=0;orthogonalLoop=1;jettySize=auto;html=1;exitX=1;exitY=0.75;exitDx=0;exitDy=0;entryX=1;entryY=0.25;entryDx=0;entryDy=0;" edge="1" parent="1" source="OzTdUbhFWefRgkYC2qgM-6" target="OzTdUbhFWefRgkYC2qgM-15">
          <mxGeometry relative="1" as="geometry">
            <Array as="points">
              <mxPoint x="830" y="180" />
              <mxPoint x="830" y="550" />
            </Array>
          </mxGeometry>
        </mxCell>
        <mxCell id="OzTdUbhFWefRgkYC2qgM-6" value="API Management" style="rounded=1;whiteSpace=wrap;html=1;" vertex="1" parent="1">
          <mxGeometry x="596" y="150" width="120" height="40" as="geometry" />
        </mxCell>
        <mxCell id="OzTdUbhFWefRgkYC2qgM-30" style="edgeStyle=orthogonalEdgeStyle;rounded=0;orthogonalLoop=1;jettySize=auto;html=1;exitX=0;exitY=0.5;exitDx=0;exitDy=0;entryX=0.75;entryY=1;entryDx=0;entryDy=0;" edge="1" parent="1" source="OzTdUbhFWefRgkYC2qgM-12" target="KKr6MW5GiYsRlFWR4de0-3">
          <mxGeometry relative="1" as="geometry" />
        </mxCell>
        <mxCell id="OzTdUbhFWefRgkYC2qgM-31" style="edgeStyle=orthogonalEdgeStyle;rounded=0;orthogonalLoop=1;jettySize=auto;html=1;exitX=0;exitY=0.25;exitDx=0;exitDy=0;entryX=1;entryY=0.75;entryDx=0;entryDy=0;noJump=0;comic=0;fixDash=0;jumpStyle=arc;" edge="1" parent="1" source="OzTdUbhFWefRgkYC2qgM-12" target="KKr6MW5GiYsRlFWR4de0-2">
          <mxGeometry relative="1" as="geometry">
            <Array as="points">
              <mxPoint x="480" y="350" />
              <mxPoint x="480" y="255" />
            </Array>
          </mxGeometry>
        </mxCell>
        <mxCell id="OzTdUbhFWefRgkYC2qgM-12" value="Trip" style="rounded=1;whiteSpace=wrap;html=1;" vertex="1" parent="1">
          <mxGeometry x="550" y="340" width="100" height="40" as="geometry" />
        </mxCell>
        <mxCell id="OzTdUbhFWefRgkYC2qgM-24" value="assign to" style="edgeStyle=orthogonalEdgeStyle;rounded=0;orthogonalLoop=1;jettySize=auto;html=1;exitX=0.25;exitY=0;exitDx=0;exitDy=0;entryX=0.75;entryY=0;entryDx=0;entryDy=0;" edge="1" parent="1" source="OzTdUbhFWefRgkYC2qgM-13" target="OzTdUbhFWefRgkYC2qgM-12">
          <mxGeometry relative="1" as="geometry" />
        </mxCell>
        <mxCell id="OzTdUbhFWefRgkYC2qgM-13" value="Reservation" style="rounded=1;whiteSpace=wrap;html=1;" vertex="1" parent="1">
          <mxGeometry x="670" y="340" width="100" height="40" as="geometry" />
        </mxCell>
        <mxCell id="OzTdUbhFWefRgkYC2qgM-23" value="Create, Update, Delete" style="edgeStyle=orthogonalEdgeStyle;rounded=0;orthogonalLoop=1;jettySize=auto;html=1;exitX=0.75;exitY=0;exitDx=0;exitDy=0;entryX=0.25;entryY=1;entryDx=0;entryDy=0;" edge="1" parent="1" source="OzTdUbhFWefRgkYC2qgM-14" target="OzTdUbhFWefRgkYC2qgM-13">
          <mxGeometry relative="1" as="geometry" />
        </mxCell>
        <mxCell id="OzTdUbhFWefRgkYC2qgM-14" value="Reservation Inbox" style="rounded=1;whiteSpace=wrap;html=1;" vertex="1" parent="1">
          <mxGeometry x="520" y="540" width="100" height="40" as="geometry" />
        </mxCell>
        <mxCell id="OzTdUbhFWefRgkYC2qgM-20" style="edgeStyle=orthogonalEdgeStyle;rounded=0;orthogonalLoop=1;jettySize=auto;html=1;exitX=0;exitY=0.5;exitDx=0;exitDy=0;entryX=0;entryY=0.25;entryDx=0;entryDy=0;" edge="1" parent="1" source="OzTdUbhFWefRgkYC2qgM-15" target="OzTdUbhFWefRgkYC2qgM-18">
          <mxGeometry relative="1" as="geometry" />
        </mxCell>
        <mxCell id="OzTdUbhFWefRgkYC2qgM-15" value="Reservation Update Checker" style="rounded=1;whiteSpace=wrap;html=1;" vertex="1" parent="1">
          <mxGeometry x="660" y="540" width="100" height="40" as="geometry" />
        </mxCell>
        <mxCell id="OzTdUbhFWefRgkYC2qgM-19" style="edgeStyle=orthogonalEdgeStyle;rounded=0;orthogonalLoop=1;jettySize=auto;html=1;exitX=0.5;exitY=0;exitDx=0;exitDy=0;entryX=0.5;entryY=1;entryDx=0;entryDy=0;" edge="1" parent="1" source="OzTdUbhFWefRgkYC2qgM-16" target="OzTdUbhFWefRgkYC2qgM-14">
          <mxGeometry relative="1" as="geometry" />
        </mxCell>
        <mxCell id="OzTdUbhFWefRgkYC2qgM-16" value="Mail reservation discovery" style="rounded=1;whiteSpace=wrap;html=1;" vertex="1" parent="1">
          <mxGeometry x="520" y="630" width="100" height="40" as="geometry" />
        </mxCell>
        <mxCell id="OzTdUbhFWefRgkYC2qgM-21" style="edgeStyle=orthogonalEdgeStyle;orthogonalLoop=1;jettySize=auto;html=1;exitX=0;exitY=0.5;exitDx=0;exitDy=0;entryX=0;entryY=0.5;entryDx=0;entryDy=0;endArrow=classic;endFill=1;strokeColor=default;rounded=0;startArrow=classic;startFill=1;" edge="1" parent="1" source="OzTdUbhFWefRgkYC2qgM-17" target="OzTdUbhFWefRgkYC2qgM-15">
          <mxGeometry relative="1" as="geometry" />
        </mxCell>
        <mxCell id="OzTdUbhFWefRgkYC2qgM-17" value="Agency Change Capture" style="rounded=1;whiteSpace=wrap;html=1;" vertex="1" parent="1">
          <mxGeometry x="660" y="670" width="100" height="40" as="geometry" />
        </mxCell>
        <mxCell id="OzTdUbhFWefRgkYC2qgM-18" value="Apollo Change Capture" style="rounded=1;whiteSpace=wrap;html=1;" vertex="1" parent="1">
          <mxGeometry x="660" y="610" width="100" height="40" as="geometry" />
        </mxCell>
        <mxCell id="OzTdUbhFWefRgkYC2qgM-34" value="" style="group" vertex="1" connectable="0" parent="1">
          <mxGeometry x="860" y="265" width="280" height="210" as="geometry" />
        </mxCell>
        <mxCell id="hSiwf4D9BwKY_Jgl33-o-3" value="Master Data" style="rounded=1;whiteSpace=wrap;html=1;verticalAlign=top;fontStyle=1;fillColor=#d5e8d4;strokeColor=#82b366;" vertex="1" parent="OzTdUbhFWefRgkYC2qgM-34">
          <mxGeometry width="280" height="210" as="geometry" />
        </mxCell>
        <mxCell id="OzTdUbhFWefRgkYC2qgM-9" value="Traveler" style="rounded=1;whiteSpace=wrap;html=1;" vertex="1" parent="OzTdUbhFWefRgkYC2qgM-34">
          <mxGeometry x="85" y="50" width="100" height="40" as="geometry" />
        </mxCell>
        <mxCell id="OzTdUbhFWefRgkYC2qgM-10" value="Agents" style="rounded=1;whiteSpace=wrap;html=1;" vertex="1" parent="OzTdUbhFWefRgkYC2qgM-34">
          <mxGeometry x="85" y="125" width="100" height="40" as="geometry" />
        </mxCell>
      </root>
    </mxGraphModel>
  </diagram>
  <diagram id="q_0HRPEkxXkjew8eY5xD" name="Service boundaries domain">
    <mxGraphModel dx="1247" dy="840" grid="0" gridSize="10" guides="1" tooltips="1" connect="1" arrows="1" fold="1" page="1" pageScale="1" pageWidth="1169" pageHeight="827" math="0" shadow="0">
      <root>
        <mxCell id="0" />
        <mxCell id="1" parent="0" />
        <mxCell id="odYR0M4X6Ah-u178ACjs-5" value="&lt;font style=&quot;font-size: 14px;&quot;&gt;&lt;span style=&quot;font-size: 14px;&quot;&gt;&lt;b&gt;Travel planning&lt;/b&gt;&lt;br&gt;Planning Service&lt;br&gt;&lt;/span&gt;&lt;/font&gt;" style="rounded=1;whiteSpace=wrap;html=1;verticalAlign=top;fontSize=14;fillColor=#dae8fc;strokeColor=#6c8ebf;" vertex="1" parent="1">
          <mxGeometry x="40" y="40" width="250" height="560" as="geometry" />
        </mxCell>
        <mxCell id="odYR0M4X6Ah-u178ACjs-6" value="&lt;font style=&quot;font-size: 14px;&quot;&gt;&lt;span style=&quot;font-size: 14px;&quot;&gt;&lt;b&gt;Enjoy your trip!&lt;/b&gt;&lt;br&gt;Travel Service&lt;br&gt;&lt;/span&gt;&lt;/font&gt;" style="rounded=1;whiteSpace=wrap;html=1;verticalAlign=top;fontSize=14;fillColor=#dae8fc;strokeColor=#6c8ebf;" vertex="1" parent="1">
          <mxGeometry x="317" y="40" width="250" height="560" as="geometry" />
        </mxCell>
        <mxCell id="odYR0M4X6Ah-u178ACjs-7" value="&lt;font style=&quot;font-size: 14px;&quot;&gt;&lt;span style=&quot;font-size: 14px;&quot;&gt;&lt;b&gt;Help me!&lt;/b&gt;&lt;br&gt;Support Service&lt;br&gt;&lt;/span&gt;&lt;/font&gt;" style="rounded=1;whiteSpace=wrap;html=1;verticalAlign=top;fontSize=14;fillColor=#dae8fc;strokeColor=#6c8ebf;" vertex="1" parent="1">
          <mxGeometry x="593" y="40" width="250" height="560" as="geometry" />
        </mxCell>
        <mxCell id="odYR0M4X6Ah-u178ACjs-10" value="&lt;font style=&quot;font-size: 14px;&quot;&gt;&lt;span style=&quot;font-size: 14px;&quot;&gt;&lt;b&gt;Data Capture&lt;/b&gt;&lt;br&gt;&lt;/span&gt;&lt;/font&gt;" style="rounded=1;whiteSpace=wrap;html=1;verticalAlign=top;fontSize=14;fillColor=#dae8fc;strokeColor=#6c8ebf;" vertex="1" parent="1">
          <mxGeometry x="60" y="640" width="480" height="90" as="geometry" />
        </mxCell>
        <mxCell id="odYR0M4X6Ah-u178ACjs-11" value="Planning data service" style="shape=cylinder3;whiteSpace=wrap;html=1;boundedLbl=1;backgroundOutline=1;size=15;" vertex="1" parent="1">
          <mxGeometry x="80" y="512" width="75" height="70" as="geometry" />
        </mxCell>
        <mxCell id="odYR0M4X6Ah-u178ACjs-12" value="Mail Extractor" style="rounded=1;whiteSpace=wrap;html=1;" vertex="1" parent="1">
          <mxGeometry x="100" y="677" width="100" height="40" as="geometry" />
        </mxCell>
        <mxCell id="odYR0M4X6Ah-u178ACjs-13" value="Agency updates" style="rounded=1;whiteSpace=wrap;html=1;" vertex="1" parent="1">
          <mxGeometry x="250" y="677" width="100" height="40" as="geometry" />
        </mxCell>
        <mxCell id="odYR0M4X6Ah-u178ACjs-14" value="Updates Travel Networks" style="rounded=1;whiteSpace=wrap;html=1;" vertex="1" parent="1">
          <mxGeometry x="400" y="677" width="100" height="40" as="geometry" />
        </mxCell>
        <mxCell id="odYR0M4X6Ah-u178ACjs-15" value="User Profile creator" style="rounded=1;whiteSpace=wrap;html=1;" vertex="1" parent="1">
          <mxGeometry x="55" y="210" width="100" height="40" as="geometry" />
        </mxCell>
        <mxCell id="odYR0M4X6Ah-u178ACjs-16" value="Trip creator" style="rounded=1;whiteSpace=wrap;html=1;" vertex="1" parent="1">
          <mxGeometry x="175" y="210" width="100" height="40" as="geometry" />
        </mxCell>
        <mxCell id="odYR0M4X6Ah-u178ACjs-17" value="Reservation creator" style="rounded=1;whiteSpace=wrap;html=1;" vertex="1" parent="1">
          <mxGeometry x="55" y="260" width="100" height="40" as="geometry" />
        </mxCell>
        <mxCell id="odYR0M4X6Ah-u178ACjs-18" value="Trip reservation linker" style="rounded=1;whiteSpace=wrap;html=1;" vertex="1" parent="1">
          <mxGeometry x="175" y="260" width="100" height="40" as="geometry" />
        </mxCell>
        <mxCell id="odYR0M4X6Ah-u178ACjs-19" value="Social media publisher" style="rounded=1;whiteSpace=wrap;html=1;" vertex="1" parent="1">
          <mxGeometry x="55" y="310" width="100" height="40" as="geometry" />
        </mxCell>
        <mxCell id="odYR0M4X6Ah-u178ACjs-20" value="Trip share" style="rounded=1;whiteSpace=wrap;html=1;" vertex="1" parent="1">
          <mxGeometry x="175" y="310" width="100" height="40" as="geometry" />
        </mxCell>
        <mxCell id="odYR0M4X6Ah-u178ACjs-21" value="Reservation updater" style="rounded=1;whiteSpace=wrap;html=1;" vertex="1" parent="1">
          <mxGeometry x="55" y="360" width="100" height="40" as="geometry" />
        </mxCell>
        <mxCell id="odYR0M4X6Ah-u178ACjs-22" value="Trip activator" style="rounded=1;whiteSpace=wrap;html=1;" vertex="1" parent="1">
          <mxGeometry x="175" y="360" width="100" height="40" as="geometry" />
        </mxCell>
        <mxCell id="odYR0M4X6Ah-u178ACjs-23" value="Support data service" style="shape=cylinder3;whiteSpace=wrap;html=1;boundedLbl=1;backgroundOutline=1;size=15;" vertex="1" parent="1">
          <mxGeometry x="688" y="500" width="72" height="70" as="geometry" />
        </mxCell>
        <mxCell id="odYR0M4X6Ah-u178ACjs-24" value="Agent registrator" style="rounded=1;whiteSpace=wrap;html=1;" vertex="1" parent="1">
          <mxGeometry x="610" y="210" width="100" height="40" as="geometry" />
        </mxCell>
        <mxCell id="odYR0M4X6Ah-u178ACjs-25" value="Help redirector" style="rounded=1;whiteSpace=wrap;html=1;" vertex="1" parent="1">
          <mxGeometry x="720" y="210" width="100" height="40" as="geometry" />
        </mxCell>
        <mxCell id="odYR0M4X6Ah-u178ACjs-26" value="Support data archiver" style="rounded=1;whiteSpace=wrap;html=1;" vertex="1" parent="1">
          <mxGeometry x="610" y="260" width="100" height="40" as="geometry" />
        </mxCell>
        <mxCell id="odYR0M4X6Ah-u178ACjs-27" value="OLAP data system" style="shape=cylinder3;whiteSpace=wrap;html=1;boundedLbl=1;backgroundOutline=1;size=15;" vertex="1" parent="1">
          <mxGeometry x="182" y="510" width="72" height="70" as="geometry" />
        </mxCell>
        <mxCell id="odYR0M4X6Ah-u178ACjs-28" value="Report generator" style="rounded=1;whiteSpace=wrap;html=1;" vertex="1" parent="1">
          <mxGeometry x="175" y="410" width="100" height="40" as="geometry" />
        </mxCell>
        <mxCell id="odYR0M4X6Ah-u178ACjs-29" value="Time machine API" style="rounded=1;whiteSpace=wrap;html=1;" vertex="1" parent="1">
          <mxGeometry x="53" y="460" width="100" height="40" as="geometry" />
        </mxCell>
        <mxCell id="odYR0M4X6Ah-u178ACjs-2" value="Mobile app" style="image;sketch=0;aspect=fixed;html=1;points=[];align=center;fontSize=12;image=img/lib/mscae/App_Service_Mobile_App.svg;labelBackgroundColor=none;" vertex="1" parent="1">
          <mxGeometry x="89.40000000000003" y="102" width="27.2" height="40" as="geometry" />
        </mxCell>
        <mxCell id="odYR0M4X6Ah-u178ACjs-4" value="Web application" style="image;sketch=0;aspect=fixed;html=1;points=[];align=center;fontSize=12;image=img/lib/mscae/CustomDomain.svg;labelBackgroundColor=none;" vertex="1" parent="1">
          <mxGeometry x="180" y="100" width="50" height="42" as="geometry" />
        </mxCell>
        <mxCell id="odYR0M4X6Ah-u178ACjs-53" value="Web application" style="image;sketch=0;aspect=fixed;html=1;points=[];align=center;fontSize=12;image=img/lib/mscae/CustomDomain.svg;labelBackgroundColor=none;" vertex="1" parent="1">
          <mxGeometry x="462.3" y="100" width="50" height="42" as="geometry" />
        </mxCell>
        <mxCell id="odYR0M4X6Ah-u178ACjs-54" value="Mobile app" style="image;sketch=0;aspect=fixed;html=1;points=[];align=center;fontSize=12;image=img/lib/mscae/App_Service_Mobile_App.svg;labelBackgroundColor=none;" vertex="1" parent="1">
          <mxGeometry x="371.70000000000005" y="102" width="27.2" height="40" as="geometry" />
        </mxCell>
        <mxCell id="odYR0M4X6Ah-u178ACjs-105" value="Mobile app" style="image;sketch=0;aspect=fixed;html=1;points=[];align=center;fontSize=12;image=img/lib/mscae/App_Service_Mobile_App.svg;labelBackgroundColor=none;" vertex="1" parent="1">
          <mxGeometry x="647.7" y="102" width="27.2" height="40" as="geometry" />
        </mxCell>
        <mxCell id="odYR0M4X6Ah-u178ACjs-106" value="Web application" style="image;sketch=0;aspect=fixed;html=1;points=[];align=center;fontSize=12;image=img/lib/mscae/CustomDomain.svg;labelBackgroundColor=none;" vertex="1" parent="1">
          <mxGeometry x="738.3" y="100" width="50" height="42" as="geometry" />
        </mxCell>
        <mxCell id="odYR0M4X6Ah-u178ACjs-109" value="Agent registrator" style="rounded=1;whiteSpace=wrap;html=1;" vertex="1" parent="1">
          <mxGeometry x="55" y="410" width="100" height="40" as="geometry" />
        </mxCell>
        <mxCell id="odYR0M4X6Ah-u178ACjs-34" value="Trip archiver" style="rounded=1;whiteSpace=wrap;html=1;" vertex="1" parent="1">
          <mxGeometry x="332" y="360" width="100" height="40" as="geometry" />
        </mxCell>
        <mxCell id="odYR0M4X6Ah-u178ACjs-31" value="Social media publisher" style="rounded=1;whiteSpace=wrap;html=1;fontStyle=0" vertex="1" parent="1">
          <mxGeometry x="332" y="311" width="100" height="40" as="geometry" />
        </mxCell>
        <mxCell id="odYR0M4X6Ah-u178ACjs-37" value="Reservation update checker" style="rounded=1;whiteSpace=wrap;html=1;" vertex="1" parent="1">
          <mxGeometry x="452" y="310" width="100" height="40" as="geometry" />
        </mxCell>
        <mxCell id="odYR0M4X6Ah-u178ACjs-43" value="Trip reservation linker" style="rounded=1;whiteSpace=wrap;html=1;" vertex="1" parent="1">
          <mxGeometry x="452" y="261" width="100" height="40" as="geometry" />
        </mxCell>
        <mxCell id="odYR0M4X6Ah-u178ACjs-40" value="Trip updater" style="rounded=1;whiteSpace=wrap;html=1;" vertex="1" parent="1">
          <mxGeometry x="332" y="262" width="100" height="40" as="geometry" />
        </mxCell>
        <mxCell id="odYR0M4X6Ah-u178ACjs-46" value="Trip &amp;amp; reservation provider" style="rounded=1;whiteSpace=wrap;html=1;" vertex="1" parent="1">
          <mxGeometry x="332" y="211" width="100" height="40" as="geometry" />
        </mxCell>
        <mxCell id="odYR0M4X6Ah-u178ACjs-49" value="Reservation updater" style="rounded=1;whiteSpace=wrap;html=1;" vertex="1" parent="1">
          <mxGeometry x="452" y="211" width="100" height="40" as="geometry" />
        </mxCell>
      </root>
    </mxGraphModel>
  </diagram>
</mxfile>
